<svg width="185" height="36" viewBox="0 0 185 36" fill="none" xmlns="http://www.w3.org/2000/svg">
<path d="M5.408 27V26.424L9.152 24.948V5.22H3.716L1.016 10.872H0.44V3.24H22.4V10.872H21.824L19.124 5.22H13.688V24.948L17.396 26.424V27H5.408ZM25.2235 27V26.424L27.5635 25.272V4.104L25.3315 2.34V1.98L31.3795 -2.14577e-06H31.7395V12.96H31.8835C32.7715 12.096 33.6235 11.436 34.4395 10.98C35.2795 10.524 36.2275 10.296 37.2835 10.296C38.7235 10.296 39.8995 10.668 40.8115 11.412C41.7475 12.156 42.2155 13.236 42.2155 14.652V25.272L44.5555 26.424V27H35.9155V26.424L38.0395 25.344V16.2C38.0395 15.288 37.7635 14.592 37.2115 14.112C36.6595 13.608 35.9395 13.356 35.0515 13.356C34.4995 13.356 33.9115 13.452 33.2875 13.644C32.6635 13.836 32.1475 14.1 31.7395 14.436V25.344L33.8635 26.424V27H25.2235ZM54.9069 27.36C52.5069 27.36 50.5989 26.652 49.1829 25.236C47.7909 23.82 47.0949 21.936 47.0949 19.584C47.0949 17.76 47.4789 16.152 48.2469 14.76C49.0149 13.368 50.0229 12.276 51.2709 11.484C52.5429 10.692 53.9469 10.296 55.4829 10.296C57.4029 10.296 58.9029 10.956 59.9829 12.276C61.0629 13.596 61.6149 15.456 61.6389 17.856L61.4949 18.036H51.1269C51.1269 19.116 51.3189 20.112 51.7029 21.024C52.0869 21.912 52.7109 22.632 53.5749 23.184C54.4389 23.712 55.5789 23.976 56.9949 23.976C57.6669 23.976 58.3869 23.88 59.1549 23.688C59.9229 23.496 60.7269 23.172 61.5669 22.716H61.6749V23.22C61.0989 24.396 60.2229 25.38 59.0469 26.172C57.8709 26.964 56.4909 27.36 54.9069 27.36ZM54.7629 11.916C53.8029 11.916 53.0109 12.312 52.3869 13.104C51.7629 13.896 51.3669 15 51.1989 16.416H58.1469C57.9309 14.76 57.5349 13.596 56.9589 12.924C56.3829 12.252 55.6509 11.916 54.7629 11.916Z" fill="#FCFCFC"/>
<path d="M86.5585 27.36C84.8305 27.36 83.2225 27.072 81.7345 26.496C80.2465 25.92 78.9505 25.104 77.8465 24.048C76.7425 22.992 75.8785 21.756 75.2545 20.34C74.6305 18.924 74.3185 17.376 74.3185 15.696C74.3185 13.848 74.6665 12.144 75.3625 10.584C76.0825 9.024 77.0545 7.668 78.2785 6.516C79.5025 5.364 80.9065 4.476 82.4905 3.852C84.0985 3.204 85.7905 2.88 87.5665 2.88C88.8385 2.88 89.9185 2.952 90.8065 3.096C91.7185 3.24 92.5225 3.444 93.2185 3.708C93.9385 3.972 94.6465 4.272 95.3425 4.608L95.6305 10.764H95.0185L92.0665 6.084C91.2505 5.556 90.5185 5.184 89.8705 4.968C89.2225 4.752 88.4785 4.644 87.6385 4.644C86.0065 4.644 84.5305 5.064 83.2105 5.904C81.8905 6.744 80.8465 7.908 80.0785 9.396C79.3105 10.884 78.9265 12.6 78.9265 14.544C78.9265 16.8 79.3105 18.732 80.0785 20.34C80.8705 21.948 81.9145 23.184 83.2105 24.048C84.5305 24.912 85.9945 25.344 87.6025 25.344C88.1545 25.344 88.7305 25.32 89.3305 25.272C89.9305 25.2 90.5305 25.08 91.1305 24.912V18.504L87.9265 16.92V16.344H98.2585V16.92L95.6305 18.576V24.336C94.9105 24.96 94.0345 25.5 93.0025 25.956C91.9705 26.388 90.8905 26.736 89.7625 27C88.6585 27.24 87.5905 27.36 86.5585 27.36ZM105.266 27.36C104.114 27.36 103.13 27.012 102.314 26.316C101.522 25.62 101.138 24.636 101.162 23.364C101.186 22.116 101.606 21.096 102.422 20.304C103.238 19.488 104.75 18.816 106.958 18.288L110.342 17.46V15.084C110.342 14.196 110.042 13.476 109.442 12.924C108.842 12.348 108.122 12.06 107.282 12.06C106.442 12.06 105.854 12.264 105.518 12.672C105.182 13.056 105.014 13.62 105.014 14.364V15.768L104.834 15.912H102.674C102.314 15.912 102.062 15.84 101.918 15.696C101.774 15.552 101.702 15.264 101.702 14.832C101.702 13.704 102.422 12.708 103.862 11.844C104.63 11.364 105.386 10.992 106.13 10.728C106.898 10.44 107.702 10.296 108.542 10.296C109.598 10.296 110.582 10.44 111.494 10.728C112.406 11.016 113.138 11.472 113.69 12.096C114.242 12.72 114.518 13.56 114.518 14.616V24.444C114.854 24.828 115.466 25.02 116.354 25.02H117.542L117.65 25.128V25.488C117.362 25.968 116.918 26.4 116.318 26.784C115.718 27.168 114.95 27.36 114.014 27.36C113.102 27.36 112.358 27.156 111.782 26.748C111.23 26.316 110.834 25.74 110.594 25.02H110.342C109.718 25.692 108.974 26.256 108.11 26.712C107.246 27.144 106.298 27.36 105.266 27.36ZM105.122 22.464C105.122 23.232 105.338 23.808 105.77 24.192C106.226 24.552 106.85 24.732 107.642 24.732C108.098 24.732 108.53 24.684 108.938 24.588C109.37 24.492 109.838 24.336 110.342 24.12V18.828C108.854 19.116 107.738 19.44 106.994 19.8C106.25 20.136 105.746 20.52 105.482 20.952C105.242 21.384 105.122 21.888 105.122 22.464ZM119.053 27V26.424L121.429 25.272V4.104L119.161 2.34V1.98L125.245 -2.14577e-06H125.569V25.272L127.765 26.424V27H119.053ZM134.586 27.36C133.434 27.36 132.45 27.012 131.634 26.316C130.842 25.62 130.458 24.636 130.482 23.364C130.506 22.116 130.926 21.096 131.742 20.304C132.558 19.488 134.07 18.816 136.278 18.288L139.662 17.46V15.084C139.662 14.196 139.362 13.476 138.762 12.924C138.162 12.348 137.442 12.06 136.602 12.06C135.762 12.06 135.174 12.264 134.838 12.672C134.502 13.056 134.334 13.62 134.334 14.364V15.768L134.154 15.912H131.994C131.634 15.912 131.382 15.84 131.238 15.696C131.094 15.552 131.022 15.264 131.022 14.832C131.022 13.704 131.742 12.708 133.182 11.844C133.95 11.364 134.706 10.992 135.45 10.728C136.218 10.44 137.022 10.296 137.862 10.296C138.918 10.296 139.902 10.44 140.814 10.728C141.726 11.016 142.458 11.472 143.01 12.096C143.562 12.72 143.838 13.56 143.838 14.616V24.444C144.174 24.828 144.786 25.02 145.674 25.02H146.862L146.97 25.128V25.488C146.682 25.968 146.238 26.4 145.638 26.784C145.038 27.168 144.27 27.36 143.334 27.36C142.422 27.36 141.678 27.156 141.102 26.748C140.55 26.316 140.154 25.74 139.914 25.02H139.662C139.038 25.692 138.294 26.256 137.43 26.712C136.566 27.144 135.618 27.36 134.586 27.36ZM134.442 22.464C134.442 23.232 134.658 23.808 135.09 24.192C135.546 24.552 136.17 24.732 136.962 24.732C137.418 24.732 137.85 24.684 138.258 24.588C138.69 24.492 139.158 24.336 139.662 24.12V18.828C138.174 19.116 137.058 19.44 136.314 19.8C135.57 20.136 135.066 20.52 134.802 20.952C134.562 21.384 134.442 21.888 134.442 22.464ZM147.869 27V26.424L149.777 25.236L154.637 19.26L149.597 12.276L147.977 11.232V10.656H156.761V11.232L154.601 12.24V12.456L157.553 16.596L160.433 12.672V12.456L158.525 11.232V10.656H164.753V11.232L162.845 12.42L158.453 17.82L163.889 25.38L165.365 26.424V27H156.869V26.424L158.921 25.416V25.2L155.537 20.52L152.297 24.984V25.2L154.385 26.424V27H147.869ZM169.226 35.676C168.674 35.676 168.326 35.592 168.182 35.424C168.062 35.28 168.002 35.016 168.002 34.632V32.436L168.182 32.256H169.802C170.402 32.256 170.882 32.208 171.242 32.112C171.602 32.016 171.926 31.764 172.214 31.356C172.526 30.948 172.886 30.288 173.294 29.376L174.338 26.928L167.426 12.276L165.122 11.232V10.656H174.518V11.232L171.998 12.312V12.456L176.318 21.636H176.534L179.954 12.636V12.456L177.578 11.232V10.656H184.526V11.232L181.934 12.456L174.77 29.844C174.554 30.396 174.362 30.852 174.194 31.212C174.05 31.596 173.882 31.956 173.69 32.292C173.498 32.652 173.222 33.084 172.862 33.588C172.382 34.284 171.806 34.8 171.134 35.136C170.462 35.496 169.826 35.676 169.226 35.676Z" fill="#0BFEEF"/>
</svg>
